<svg width="32" height="32" viewBox="0 0 32 32" fill="none" xmlns="http://www.w3.org/2000/svg">
<path d="M23.3462 32.0001C28.1256 32.0001 32.0001 28.1256 32.0001 23.3462C32.0001 18.5668 28.1256 14.6924 23.3462 14.6924C18.5668 14.6924 14.6924 18.5668 14.6924 23.3462C14.6924 28.1256 18.5668 32.0001 23.3462 32.0001Z" fill="#97CF26"/>
<path d="M7.11561 27.3845C9.34599 27.3845 11.1541 25.5765 11.1541 23.3461C11.1541 21.1157 9.34599 19.3076 7.11561 19.3076C4.88523 19.3076 3.07715 21.1157 3.07715 23.3461C3.07715 25.5765 4.88523 27.3845 7.11561 27.3845Z" fill="#A169F7"/>
<path d="M23.3461 12.6541C26.4049 12.6541 28.8845 10.1744 28.8845 7.11561C28.8845 4.0568 26.4049 1.57715 23.3461 1.57715C20.2873 1.57715 17.8076 4.0568 17.8076 7.11561C17.8076 10.1744 20.2873 12.6541 23.3461 12.6541Z" fill="#FF6163"/>
<path d="M7.11539 14.2308C11.0451 14.2308 14.2308 11.0451 14.2308 7.11539C14.2308 3.18567 11.0451 0 7.11539 0C3.18567 0 0 3.18567 0 7.11539C0 11.0451 3.18567 14.2308 7.11539 14.2308Z" fill="#00AAFF"/>
<path d="M19.9999 26.0773H24.4998L16.1537 3.46191H12.8845L4.61523 26.0773H9.11523L10.6922 21.7696H18.4229L19.9999 26.0773L11.9614 18.3465L14.5768 11.2311L17.1922 18.3465H11.9614L19.9999 26.0773Z" fill="white"/>
</svg>
