<svg width="32" height="32" viewBox="0 0 32 32" fill="none" xmlns="http://www.w3.org/2000/svg">
<path d="M27.7798 8.98667C27.5131 9.16 27.1331 9.32 26.9731 9.5C26.9131 9.56 26.8798 9.62667 26.8931 9.69333V10.38L26.6931 11.0533L26.4931 11.72L26.2731 12.4533L25.8198 13.9533L25.3798 15.4333L25.0464 16.5467C25.0464 16.72 25.0398 16.8933 25.0264 17.06C24.9798 17.7 24.8464 18.3133 24.6331 18.8867C24.5064 19.24 24.3531 19.58 24.1664 19.9C24.0998 20.0267 24.0198 20.1533 23.9398 20.2733C23.6731 20.6933 23.3531 21.08 22.9998 21.42C22.7264 21.6933 22.4264 21.9467 22.0998 22.16C22.0998 22.16 22.0998 22.16 22.0931 22.16C22.0398 22.2067 21.9798 22.2467 21.9131 22.28C21.7064 22.42 21.4864 22.54 21.2598 22.6467C21.1064 22.7267 20.9531 22.7933 20.7931 22.8533C20.7598 22.8733 20.7198 22.8867 20.6864 22.9C20.3064 23.08 19.8664 23.2 19.4264 23.26C19.3998 23.2667 19.3798 23.2667 19.3531 23.2733C19.0864 23.32 18.8264 23.36 18.5598 23.38C18.4398 23.3933 18.3131 23.4 18.1931 23.4L17.7198 23.3733L15.4398 23.2533C15.4398 23.2467 15.4331 23.2533 15.4331 23.2533L14.2864 23.1933C14.1998 23.1933 14.1064 23.1933 14.0198 23.1867C13.6598 23.1733 13.3131 23.1333 12.9664 23.06C12.9598 23.06 12.9598 23.06 12.9598 23.06C12.3264 22.94 11.7198 22.7267 11.1531 22.44C10.8398 22.28 10.5331 22.1 10.2464 21.8933C10.1264 21.8067 10.0131 21.7133 9.89977 21.6133C9.57977 21.3467 9.29311 21.06 9.02644 20.7667C8.98644 20.7267 8.95311 20.6867 8.91977 20.6467C8.87977 20.6067 8.83977 20.56 8.80644 20.52C8.55311 20.2 8.33977 19.8733 8.16644 19.5267C8.00644 19.22 7.87977 18.8933 7.77977 18.5333C7.73977 18.4067 7.70644 18.2867 7.67977 18.1533C7.67311 18.1467 7.66644 18.1333 7.66644 18.12C7.59977 17.8467 7.53977 17.56 7.50644 17.2733C7.46644 17.0533 7.44644 16.8333 7.44644 16.6067C7.43311 16.52 7.43311 16.4267 7.43311 16.34L8.70644 14.3733L9.95311 12.4533L10.5198 11.58L11.0331 10.7933L11.2064 10.52V9.83333C11.2198 9.68 11.2264 9.52 11.2198 9.37333C11.2131 8.90667 11.1198 8.45333 10.9664 8.02C10.8198 7.56 10.6131 7.12667 10.3998 6.72667C10.1464 6.26667 9.87977 5.85333 9.65977 5.48C9.33311 4.93333 9.10644 4.48667 9.16644 4.17333C9.64644 4.06 10.1531 4 10.6664 4H21.3331C24.1198 4 26.5198 5.73333 27.5131 8.17333C27.6198 8.43333 27.7131 8.70667 27.7798 8.98667Z" fill="#304FFE"/>
<path d="M27.9999 10.6667V10.8467L27.0799 11.38L26.4933 11.72L25.8466 12.0933L24.5533 12.8467L23.2866 13.58L21.9933 14.3267L21.4799 14.6267C21.4799 14.9467 21.3999 15.24 21.2532 15.5067C21.0466 15.8933 20.6999 16.2133 20.2599 16.4867C19.8132 16.76 19.2666 16.98 18.6532 17.14C18.6532 17.14 18.6532 17.1333 18.6466 17.14C16.2732 17.7533 13.0332 17.4733 11.4599 16.3C11.0199 15.9733 10.7132 15.5733 10.5799 15.1133C10.5399 14.96 10.5199 14.7933 10.5199 14.6267V9.83333C10.5266 9.73333 10.4599 9.63333 10.3399 9.53333C9.97992 9.24667 9.13325 8.97333 8.18658 8.7C7.44658 8.49333 6.65325 8.28667 5.98658 8.08667C5.45992 7.92667 5.01325 7.76667 4.74658 7.61333C4.86658 7.38 5.00658 7.14667 5.15325 6.92667C6.08658 5.56 7.51325 4.55333 9.16658 4.17333C9.64658 4.06 10.1532 4 10.6666 4H17.8666C21.4466 4.62667 24.7466 6.08667 27.5133 8.17333C27.6199 8.43333 27.7132 8.70667 27.7799 8.98667C27.8999 9.42667 27.9733 9.88 27.9933 10.3533C27.9999 10.4533 27.9999 10.56 27.9999 10.6667Z" fill="#4928F4"/>
<path d="M28 10.6667V13.6067L27.8533 14.06L27.3533 15.6134L26.8333 17.2134L26.5599 18.0667L26.3066 18.86L26.0599 19.6134L25.8199 20.36L25.6933 20.7534L25.5266 21.2734C25.5266 21.78 25.5133 22.2267 25.4799 22.6067C25.4733 22.6467 25.4666 22.6867 25.4666 22.7267C25.4266 23.08 25.3733 23.38 25.2866 23.6334C25.2799 23.6734 25.2666 23.7134 25.2533 23.7467C25.0799 24.2267 24.82 24.5334 24.4333 24.7334C24.3399 24.7867 24.2333 24.8267 24.1199 24.8667C23.7666 24.9867 23.3199 25.0467 22.7733 25.08C22.3733 25.1067 21.9133 25.1134 21.3933 25.1134H20.9333L20.1399 25.08L19.9999 25.0734L18.5533 25.0134L17.0866 24.9534L12.2533 24.7534L10.9999 24.7H10.8266C10.3066 24.6934 9.85995 24.66 9.47328 24.6067C8.91328 24.52 8.47995 24.3734 8.15328 24.1534C7.68661 23.8534 7.41328 23.4134 7.25328 22.8C7.21328 22.6534 7.17995 22.5 7.15995 22.3334C7.09328 21.9467 7.05995 21.5 7.03995 21C7.03995 20.9 7.03995 20.8 7.03328 20.6934C7.02661 20.6867 7.03328 20.6867 7.03328 20.6867V20.3C7.02661 20.1067 7.02661 19.9067 7.02661 19.7L7.05995 18.6267L7.07995 17.86L7.10661 16.9667V16.84L7.15328 15.2L7.19995 13.56L7.24661 12.02L7.28661 10.5067L7.29995 10.1067C7.29995 9.90004 6.59995 9.78004 5.81995 9.68004C5.19995 9.60004 4.51995 9.52671 4.11328 9.43337C4.14661 9.28004 4.17995 9.12671 4.21995 8.98004C4.33995 8.50004 4.51995 8.04671 4.74661 7.61337C4.86661 7.38004 5.00661 7.14671 5.15328 6.92671C6.59328 6.29337 8.09328 5.80004 9.65995 5.48004C11.0333 5.19337 12.4666 5.04004 13.9466 5.04004C18.8533 5.04004 23.3866 6.70004 26.9733 9.50004C27.32 9.76671 27.6599 10.0534 27.9933 10.3534C27.9999 10.4534 28 10.56 28 10.6667Z" fill="#6200EA"/>
<path d="M28 12.2467V15.2734L27.6333 15.9801L26.9333 17.3467L26.56 18.0667L26.22 18.7267L26.0733 19.0134C26.0733 19.2201 26.0733 19.4201 26.06 19.6134C26.06 19.9001 26.0467 20.1734 26.0267 20.4267C26 20.7267 25.96 21.0001 25.92 21.2534C25.82 21.7801 25.68 22.2334 25.48 22.6067C25.4533 22.6534 25.4267 22.7001 25.4 22.7401C25.3267 22.8601 25.24 22.9734 25.1467 23.0801C25.0267 23.2267 24.8933 23.3534 24.74 23.4601C24.5133 23.6334 24.2467 23.7734 23.94 23.8801C23.56 24.0201 23.12 24.1134 22.6 24.1667C22.26 24.2001 21.8867 24.2201 21.48 24.2201L21.2 24.2334L19.8133 24.3134H19.8067L18.3333 24.4001L16.8333 24.4867L14.7667 24.6067L12.2533 24.7534L11.8867 24.7734C11.5467 24.7734 11.2267 24.7534 10.92 24.7134C10.8867 24.7067 10.86 24.7001 10.8267 24.7001C10.3733 24.6267 9.96 24.5067 9.58667 24.3401C9.13333 24.1401 8.74 23.8734 8.40667 23.5534C8.11333 23.2667 7.86 22.9401 7.65333 22.5734C7.60667 22.4867 7.56 22.4067 7.52 22.3134C7.32 21.9201 7.16 21.4801 7.04 21.0001C7.02 20.9201 7 20.8334 6.98667 20.7467C6.94667 20.5934 6.91333 20.4334 6.89333 20.2667C6.82 19.8401 6.78 19.3867 6.76 18.9134V18.9067C6.75333 18.7134 6.74667 18.5267 6.74667 18.3267L6.42 17.5467L6.37333 17.4267L6.33333 17.3267L5.83333 16.1334L5.75333 15.9401L5.27333 14.7867L4.74 13.5001C4.74 13.5001 4.74 13.5001 4.73333 13.5001L4.19333 12.2001L4 11.7267V10.6667C4 10.2467 4.04 9.8334 4.11333 9.4334C4.14667 9.28007 4.18 9.12674 4.22 8.98007C4.78667 8.65341 5.38 8.35341 5.98667 8.08674C7.37333 7.46674 8.86 7.00674 10.4 6.72674C11.5467 6.52007 12.74 6.40674 13.9467 6.40674C18.82 6.40674 23.24 8.1734 26.6933 11.0534C26.8267 11.1601 26.9533 11.2667 27.08 11.3801C27.3933 11.6534 27.7 11.9401 28 12.2467Z" fill="#673AB7"/>
<path d="M28 14.2331V17.6598L27.62 18.4531L26.9 19.9531L26.8933 19.9731C26.8933 20.2598 26.88 20.5198 26.86 20.7531C26.7933 21.5198 26.6067 22.0065 26.3 22.3064C26.08 22.5331 25.8067 22.6598 25.4667 22.7265C25.4467 22.7331 25.42 22.7331 25.4 22.7398C25.2933 22.7598 25.18 22.7731 25.06 22.7731C24.6467 22.8131 24.16 22.7865 23.6 22.7465C23.54 22.7465 23.4733 22.7398 23.4067 22.7331C23 22.7064 22.5667 22.6798 22.0867 22.6598C21.8267 22.6531 21.5533 22.6465 21.2733 22.6465H21.26L20.5867 22.6998H20.58L19.0667 22.8064L17.34 22.9398L17.0867 22.9598L15.0667 23.1065L14.02 23.1865L12.9867 23.2598C12.8067 23.2598 12.6333 23.2598 12.46 23.2531C12.46 23.2531 12.4533 23.2465 12.4533 23.2531C11.7 23.2398 11.0267 23.1931 10.4267 23.0798C9.87333 22.9865 9.38667 22.8398 8.97333 22.6198C8.54667 22.4131 8.19333 22.1198 7.90667 21.7465C7.63333 21.3798 7.43333 20.9198 7.30667 20.3665C7.30667 20.3598 7.30667 20.3598 7.30667 20.3598C7.21333 19.9131 7.16 19.3931 7.16 18.8065L7.06 18.6265L6.46667 17.5665L6.38 17.4198L6.33333 17.3265L5.71333 16.2265L5.40667 15.6731L5.02 14.9865L4.35333 13.7931L4 13.1665V10.7131C4.58667 10.3265 5.19333 9.98645 5.82 9.67979C6.58 9.29312 7.36667 8.96645 8.18667 8.69979C9.08 8.40645 10.0133 8.17312 10.9667 8.01978C11.9333 7.85978 12.9267 7.77979 13.9467 7.77979C18.48 7.77979 22.64 9.39978 25.8467 12.0931C25.9933 12.2065 26.1333 12.3331 26.2733 12.4531C26.8333 12.9531 27.3667 13.4931 27.8533 14.0598C27.9067 14.1198 27.96 14.1731 28 14.2331Z" fill="#8E24AA"/>
<path d="M28 16.4732V21.2932C27.84 21.1998 27.62 21.0865 27.3467 20.9665C27.2 20.8932 27.0333 20.8198 26.86 20.7532C26.6067 20.6398 26.3333 20.5331 26.0267 20.4265C25.96 20.3998 25.8933 20.3798 25.82 20.3598C25.7 20.3132 25.5733 20.2732 25.4467 20.2332C25.0533 20.1132 24.62 19.9998 24.1667 19.8998C23.9933 19.8665 23.8133 19.8332 23.6333 19.8065C23.0533 19.7065 22.4333 19.6465 21.7867 19.6398C21.7333 19.6332 21.6733 19.6332 21.62 19.6332L19.9067 19.6465L17.5733 19.6598H17.5667L12.5733 19.6998C10.9867 19.6998 10.0133 20.0798 9.42667 20.2332C9.42667 20.2332 9.42 20.2332 9.42 20.2398C8.8 20.3998 8.60667 20.2998 8.55333 19.2132C8.54 18.9132 8.53333 18.5265 8.53333 18.0532L8.16 17.7665L7.50667 17.2732L7.10667 16.9665L7.02667 16.9065L5.92 16.0665L5.75333 15.9398L5.40667 15.6732L4.76667 15.1932L4 14.6065V12.3398C4.06667 12.2865 4.12667 12.2398 4.19333 12.1998C5.16 11.5332 6.19333 10.9665 7.28667 10.5065C8.26 10.0932 9.28667 9.76648 10.34 9.53315C10.6267 9.47315 10.92 9.41315 11.22 9.37315C12.1067 9.21982 13.02 9.14648 13.9467 9.14648C17.9533 9.14648 21.6333 10.5398 24.5533 12.8465C24.9933 13.1932 25.42 13.5598 25.82 13.9532C26.3667 14.4732 26.88 15.0265 27.3533 15.6132C27.4467 15.7332 27.54 15.8532 27.6333 15.9798C27.76 16.1398 27.88 16.3065 28 16.4732Z" fill="#C2185B"/>
<path d="M28 19.1467V21.3334C28 21.7667 27.96 22.1934 27.88 22.6067C27.76 23.22 27.5533 23.8067 27.2733 24.3534C27.1267 24.3867 26.96 24.3867 26.7733 24.36C26.3533 24.2867 25.86 24.0667 25.3267 23.78C25.3 23.7734 25.2733 23.76 25.2533 23.7467C25.0867 23.66 24.9133 23.5667 24.74 23.46C24.3867 23.2667 24.0133 23.0534 23.64 22.8534C23.56 22.8134 23.48 22.7734 23.4067 22.7334C22.98 22.5134 22.54 22.3134 22.1 22.16C22.1 22.16 22.1 22.16 22.0933 22.16C22 22.1267 21.9 22.0934 21.8 22.0667C21.42 21.96 21.0333 21.8934 20.66 21.8934L19.9267 21.68L16.68 20.74C16.68 20.74 16.68 20.74 16.6733 20.74L14.68 20.16H14.6733L13.8067 19.9067C11.3 19.9067 9.76 20.9734 9.01333 20.5667C8.72 20.4134 8.54667 20.0267 8.48667 19.2667C8.46667 19.0534 8.46 18.8134 8.46 18.5334L7.68 18.1534L7.64667 18.14H7.64L7.08 17.86L6.46667 17.5667L6.42 17.5467L6.30667 17.4867L5 16.8534L4 16.3667V14.08C4.11333 13.98 4.23333 13.8867 4.35333 13.7934C4.48 13.6934 4.60667 13.6 4.73333 13.5C4.74 13.5 4.74 13.5 4.74 13.5C5.52667 12.9334 6.36 12.4334 7.24667 12.02C8.28 11.5267 9.38 11.1467 10.52 10.9C10.6867 10.86 10.86 10.82 11.0333 10.7934C11.98 10.6134 12.9533 10.52 13.9467 10.52C17.46 10.52 20.6867 11.66 23.2867 13.58C24.04 14.14 24.74 14.76 25.38 15.4334C25.9067 15.9867 26.3933 16.5867 26.8333 17.2134C26.8667 17.26 26.9 17.3067 26.9333 17.3467C27.18 17.7067 27.4067 18.0734 27.62 18.4534C27.76 18.68 27.88 18.9134 28 19.1467Z" fill="#D81B60"/>
<path d="M27.88 22.6067C27.76 23.2201 27.5533 23.8067 27.2733 24.3534C27.1467 24.6001 27.0067 24.8334 26.8533 25.0601C26.76 25.2001 26.66 25.3334 26.56 25.4601C26.32 25.3667 25.9667 25.2334 25.5333 25.0867C25.5333 25.0867 25.5333 25.0867 25.5333 25.0801C25.2067 24.9667 24.8333 24.8467 24.4333 24.7334C24.32 24.7001 24.2067 24.6667 24.0867 24.6334C23.6133 24.5067 23.12 24.3934 22.64 24.3267C22.24 24.2601 21.8467 24.2201 21.48 24.2201L21.1733 24.1334H21.1667L19.5533 23.6667L18.56 23.3801L17.4533 23.0601H17.4467L17.0867 22.9601L12.7333 21.7067L11.48 21.3467L10.5467 21.1267L9.02667 20.7667L8.84 20.7201C8.84 20.7201 8.84 20.7201 8.83333 20.7201L7.30667 20.3667C7.30667 20.3601 7.30667 20.3601 7.30667 20.3601L7.03333 20.3001L6.89333 20.2667L5.78 20.0067L5.65333 19.9734L4.70667 19.1934L4 18.6001V15.8801C4.24667 15.6401 4.5 15.4134 4.76667 15.1934C4.84667 15.1201 4.93333 15.0534 5.02 14.9867C5.1 14.9201 5.18667 14.8534 5.27333 14.7867C5.88 14.3267 6.52 13.9134 7.2 13.5601C8.06667 13.0934 8.98667 12.7201 9.95333 12.4534C10.14 12.3934 10.3267 12.3401 10.52 12.3001C11.6133 12.0267 12.76 11.8867 13.9467 11.8867C16.9267 11.8867 19.7 12.7867 21.9933 14.3267C23.1333 15.0934 24.16 16.0134 25.0267 17.0601C25.4667 17.5867 25.8667 18.1401 26.22 18.7267C26.2533 18.7734 26.28 18.8134 26.3067 18.8601C26.52 19.2134 26.72 19.5801 26.9 19.9534C27.0667 20.2867 27.2133 20.6201 27.3467 20.9667C27.56 21.5001 27.7333 22.0467 27.88 22.6067Z" fill="#F50057"/>
<path d="M26.8533 25.0598C26.76 25.1998 26.66 25.3331 26.56 25.4598C26.2667 25.8264 25.9467 26.1598 25.5867 26.4531C25.2733 26.7131 24.94 26.9464 24.5867 27.1464C24.4533 27.1131 24.32 27.0731 24.18 27.0198C23.74 26.8664 23.28 26.6131 22.8533 26.3464C22.2133 25.9398 21.66 25.4998 21.4133 25.2998C21.32 25.2198 21.2733 25.1798 21.2733 25.1798L20.14 25.0798L20 25.0664L18.5333 24.9398L17.0133 24.8064L14.7667 24.6064L11.2067 24.2931L11.1933 24.2864L9.94 23.6798L8.67333 23.0664L7.65333 22.5731L7.43333 22.4664L7.16 22.3331L6.21333 21.8731L4.95333 21.2664L4.56 21.0731L4 20.8998V17.9198C4.31333 17.5464 4.64667 17.1931 5 16.8531C5.22667 16.6398 5.46667 16.4264 5.71333 16.2264C5.75333 16.1931 5.79333 16.1598 5.83333 16.1331C5.86 16.0998 5.89333 16.0798 5.92 16.0664C6.31333 15.7464 6.72667 15.4598 7.15333 15.1998C7.64667 14.8864 8.16667 14.6064 8.70667 14.3731C9.28667 14.1131 9.89333 13.8931 10.52 13.7264C11.6067 13.4198 12.76 13.2598 13.9467 13.2598C16.6667 13.2598 19.18 14.0864 21.2533 15.5064C22.58 16.4131 23.7267 17.5598 24.6333 18.8864C24.9333 19.3131 25.2 19.7664 25.4467 20.2331C25.5333 20.4064 25.62 20.5798 25.6933 20.7531C25.7733 20.9198 25.8467 21.0864 25.92 21.2531C26.06 21.5998 26.1867 21.9464 26.3 22.3064C26.5133 22.9731 26.6733 23.6531 26.7733 24.3598C26.8067 24.5931 26.8333 24.8264 26.8533 25.0598Z" fill="#FF1744"/>
<path d="M25.5933 26.2798C25.5933 26.3331 25.5933 26.3931 25.5867 26.4531C25.2733 26.7131 24.94 26.9465 24.5867 27.1465C24.44 27.2265 24.2933 27.3065 24.14 27.3731C23.9867 27.4465 23.8333 27.5131 23.6733 27.5731C23.4467 27.4531 23.14 27.3065 22.8133 27.1665C22.3533 26.9598 21.8533 26.7731 21.4667 26.7131C21.3733 26.6931 21.2867 26.6865 21.2067 26.6865L20.1133 26.5465H20.1L18.74 26.3665L17.3667 26.1865L16.7267 26.1065L11.6867 25.4531C11.36 25.4531 11.0133 25.4331 10.6533 25.3865C10.2133 25.3465 9.75333 25.2798 9.29333 25.1865C8.84 25.1065 8.38 24.9998 7.94 24.8865C7.48 24.7798 7.02667 24.6531 6.60667 24.5331C6.12 24.3865 5.66667 24.2465 5.28667 24.1198C4.97333 24.0198 4.70667 23.9265 4.5 23.8531C4.38 23.5665 4.28 23.2665 4.20667 22.9598C4.06667 22.4398 4 21.8931 4 21.3331V20.2198C4.21333 19.8665 4.44667 19.5198 4.70667 19.1931C5.18 18.5665 5.72 17.9931 6.30667 17.4865C6.32667 17.4598 6.35333 17.4398 6.37333 17.4265L6.38 17.4198C6.58667 17.2331 6.8 17.0665 7.02667 16.9065C7.05333 16.8798 7.08 16.8598 7.10667 16.8398C7.21333 16.7598 7.32667 16.6798 7.44667 16.6065C8.4 15.9598 9.45333 15.4531 10.58 15.1131C11.6467 14.7931 12.7733 14.6265 13.9467 14.6265C16.2733 14.6265 18.4467 15.3131 20.26 16.4865C21.6 17.3465 22.7533 18.4798 23.6333 19.8065C23.74 19.9598 23.84 20.1131 23.94 20.2731C24.4 21.0531 24.78 21.8931 25.06 22.7731C25.0933 22.8731 25.12 22.9731 25.1467 23.0798C25.2 23.2598 25.2467 23.4465 25.2867 23.6331C25.3 23.6798 25.3133 23.7265 25.3267 23.7798C25.42 24.1998 25.4867 24.6398 25.5333 25.0798C25.5333 25.0865 25.5333 25.0865 25.5333 25.0865C25.5733 25.4798 25.5933 25.8798 25.5933 26.2798Z" fill="#FF5722"/>
<path d="M24.2199 26.28C24.2199 26.5133 24.2065 26.7667 24.1799 27.02C24.1665 27.14 24.1532 27.26 24.1399 27.3733C23.9865 27.4467 23.8332 27.5133 23.6732 27.5733C23.3732 27.6867 23.0665 27.78 22.7532 27.8467C22.5399 27.8933 22.3199 27.9333 22.0999 27.9533H22.0932C21.8865 27.8267 21.6465 27.6733 21.3999 27.5C20.9532 27.1867 20.4865 26.8333 20.1132 26.5467C20.1065 26.54 20.1065 26.54 20.0999 26.5333C19.7065 26.2333 19.4265 26.0067 19.4265 26.0067L18.7199 26.0333L17.3599 26.08L16.7265 26.1067L14.1799 26.2L12.0265 26.28C11.8865 26.2867 11.7199 26.2867 11.5132 26.28H11.5065C11.2265 26.2733 10.8932 26.2533 10.5265 26.22C10.0999 26.1867 9.63321 26.1467 9.15988 26.1C8.69988 26.0467 8.23321 25.9933 7.78654 25.94C7.29321 25.8867 6.82654 25.8267 6.42654 25.7733C6.11321 25.7333 5.83988 25.7 5.61988 25.6733C5.43321 25.46 5.26654 25.24 5.10654 25C4.86654 24.64 4.65988 24.26 4.49988 23.8533C4.37988 23.5667 4.27988 23.2667 4.20654 22.96C4.39988 22.3667 4.65321 21.8067 4.95321 21.2667C5.19321 20.8267 5.47321 20.4067 5.77988 20.0067C6.07988 19.6133 6.40654 19.2467 6.75988 18.9133V18.9067C6.85988 18.8067 6.95988 18.7133 7.05988 18.6267C7.24654 18.4533 7.43988 18.2933 7.63988 18.14H7.64654C7.65321 18.1267 7.65988 18.1267 7.66654 18.12C7.82654 17.9933 7.99321 17.88 8.15988 17.7667C9.14654 17.0933 10.2599 16.5933 11.4599 16.3C12.2532 16.1067 13.0865 16 13.9465 16C15.6399 16 17.2399 16.4067 18.6465 17.14H18.6532C19.8599 17.76 20.9265 18.6133 21.7865 19.64C22.2599 20.1867 22.6665 20.7867 22.9999 21.42C23.2332 21.8467 23.4332 22.2933 23.5999 22.7467C23.6132 22.7867 23.6265 22.82 23.6399 22.8533C23.7532 23.1867 23.8532 23.5333 23.9399 23.88C23.9999 24.1267 24.0465 24.38 24.0865 24.6333C24.0999 24.7133 24.1132 24.7867 24.1199 24.8667C24.1865 25.3267 24.2199 25.8 24.2199 26.28Z" fill="#FF6F00"/>
<path d="M22.8531 26.2802V26.3469C22.8531 26.5735 22.8331 26.8602 22.8131 27.1669C22.7931 27.3935 22.7731 27.6269 22.7531 27.8469C22.5398 27.8935 22.3198 27.9335 22.0998 27.9535H22.0931C21.8398 27.9869 21.5931 28.0002 21.3331 28.0002H20.1664L19.9131 27.9269L18.5998 27.5269L17.2664 27.1269L14.1798 26.2002L12.8464 25.8002C12.8464 25.8002 12.2931 26.0202 11.5131 26.2802H11.5064C11.2064 26.3802 10.8798 26.4869 10.5331 26.5935C10.0998 26.7202 9.63978 26.8469 9.18645 26.9469C8.71978 27.0535 8.25978 27.1335 7.84645 27.1669C7.71978 27.1802 7.59311 27.1869 7.47978 27.1869C7.10645 26.9802 6.74645 26.7335 6.41978 26.4602C6.13311 26.2202 5.86645 25.9602 5.61978 25.6735C5.43311 25.4602 5.26645 25.2402 5.10645 25.0002C5.15311 24.7002 5.20645 24.4069 5.28645 24.1202C5.48645 23.3269 5.79978 22.5669 6.21311 21.8735C6.43978 21.4802 6.69311 21.1002 6.98645 20.7469C6.99311 20.7269 7.01311 20.7069 7.03311 20.6935C7.02645 20.6869 7.03311 20.6869 7.03311 20.6869C7.11978 20.5735 7.21311 20.4669 7.30645 20.3669C7.30645 20.3602 7.30645 20.3602 7.30645 20.3602C7.57978 20.0669 7.85978 19.7869 8.16645 19.5269C8.27311 19.4402 8.37311 19.3535 8.48645 19.2669C8.50645 19.2469 8.52645 19.2335 8.55311 19.2135C10.0531 18.0669 11.9264 17.3735 13.9464 17.3735C16.2398 17.3735 18.3264 18.2335 19.9064 19.6469C20.6664 20.3335 21.3131 21.1535 21.7998 22.0669C21.8398 22.1335 21.8798 22.2069 21.9131 22.2802C21.9731 22.4002 22.0331 22.5269 22.0864 22.6602C22.3064 23.1402 22.4798 23.6469 22.5998 24.1669C22.6131 24.2202 22.6264 24.2735 22.6398 24.3269C22.6931 24.5735 22.7398 24.8269 22.7731 25.0802C22.8264 25.4735 22.8531 25.8735 22.8531 26.2802Z" fill="#FF9800"/>
<path d="M21.4801 26.2802C21.4801 26.4136 21.4734 26.5602 21.4667 26.7136C21.4534 26.9602 21.4334 27.2269 21.4001 27.5002C21.3867 27.6669 21.3601 27.8336 21.3334 28.0002H17.6801L16.9734 27.8869L14.2134 27.4469L13.8201 27.3869L12.9201 27.2402C12.5267 27.2402 11.6734 27.4136 10.7734 27.5802C10.3001 27.6669 9.82007 27.7602 9.38674 27.8202C9.33341 27.8269 9.28007 27.8336 9.23341 27.8402H9.22674C8.76007 27.7402 8.30674 27.5869 7.88007 27.3869C7.74674 27.3269 7.61341 27.2602 7.48007 27.1869C7.10674 26.9802 6.74674 26.7336 6.42007 26.4602C6.41341 26.3802 6.40674 26.3136 6.40674 26.2802C6.40674 26.1069 6.41341 25.9402 6.42674 25.7736C6.45341 25.3469 6.51341 24.9336 6.60674 24.5336C6.75341 23.9269 6.96674 23.3402 7.25341 22.8002C7.30674 22.6869 7.36674 22.5736 7.4334 22.4669C7.46007 22.4136 7.4934 22.3669 7.52007 22.3136C7.64007 22.1202 7.7734 21.9336 7.90674 21.7469C8.18674 21.3802 8.50007 21.0336 8.83341 20.7202C8.84007 20.7202 8.84007 20.7202 8.84007 20.7202C8.86674 20.6936 8.89341 20.6669 8.92007 20.6469C8.95341 20.6202 8.98007 20.5869 9.01341 20.5669C9.14674 20.4469 9.28007 20.3402 9.42007 20.2402C9.42007 20.2336 9.42674 20.2336 9.42674 20.2336C10.6867 19.2936 12.2467 18.7402 13.9467 18.7402C15.2667 18.7402 16.4934 19.0736 17.5667 19.6602H17.5734C18.4934 20.1669 19.2934 20.8536 19.9267 21.6802C20.1734 22.0002 20.3934 22.3402 20.5801 22.7002H20.5867C20.6201 22.7669 20.6534 22.8336 20.6867 22.9002C20.8867 23.2936 21.0467 23.7069 21.1667 24.1336H21.1734C21.1801 24.1669 21.1934 24.2002 21.2001 24.2336C21.2801 24.5202 21.3467 24.8136 21.3934 25.1136C21.4001 25.1736 21.4067 25.2402 21.4134 25.3002C21.4601 25.6202 21.4801 25.9469 21.4801 26.2802Z" fill="#FFC107"/>
<path d="M20.1131 26.2066C20.1131 26.3133 20.1131 26.4266 20.0998 26.5333V26.5399C20.0998 26.5466 20.0998 26.5466 20.0998 26.5466C20.0865 27.0266 20.0198 27.4999 19.9131 27.9266C19.9131 27.9533 19.9065 27.9733 19.8931 27.9999H16.7798L14.2131 27.4466L13.8731 27.3733L13.8198 27.3866L10.9731 27.9733L10.8465 27.9999H10.6665C10.2398 27.9999 9.81979 27.9599 9.41312 27.8799C9.35312 27.8666 9.29312 27.8533 9.23312 27.8399H9.22645C8.75979 27.7399 8.30645 27.5866 7.87978 27.3866C7.86645 27.3133 7.85312 27.2399 7.84645 27.1666C7.79979 26.8799 7.77979 26.5799 7.77979 26.2799C7.77979 26.1666 7.77979 26.0533 7.78645 25.9399C7.80645 25.5799 7.85979 25.2266 7.93979 24.8866C7.99312 24.6333 8.06645 24.3866 8.15312 24.1533C8.22645 23.9466 8.31312 23.7466 8.40645 23.5533C8.48645 23.3866 8.57979 23.2266 8.67312 23.0666C8.76645 22.9133 8.86645 22.7666 8.97312 22.6199C9.23979 22.2533 9.55312 21.9133 9.89979 21.6133C10.0998 21.4399 10.3198 21.2733 10.5465 21.1266C11.5198 20.4866 12.6865 20.1133 13.9465 20.1133C14.1931 20.1133 14.4331 20.1266 14.6665 20.1599H14.6798C15.3931 20.2399 16.0598 20.4399 16.6731 20.7399C16.6798 20.7399 16.6798 20.7399 16.6798 20.7399C17.6465 21.2133 18.4665 21.9266 19.0665 22.8066C19.1665 22.9533 19.2665 23.1133 19.3531 23.2733C19.4265 23.3999 19.4931 23.5333 19.5531 23.6666C19.6465 23.8733 19.7331 24.0933 19.8065 24.3133H19.8131C19.8865 24.5599 19.9531 24.8066 19.9998 25.0666V25.0733C20.0731 25.4399 20.1131 25.8199 20.1131 26.2066Z" fill="#FFD54F"/>
<path d="M18.7398 26.3469V26.3669C18.7398 26.7602 18.6931 27.1469 18.5998 27.5269C18.5665 27.6869 18.5198 27.8469 18.4598 28.0002H15.4731L13.9465 27.5802L12.4198 28.0002H10.6665C10.2398 28.0002 9.81982 27.9602 9.41315 27.8802C9.39982 27.8602 9.39315 27.8402 9.38648 27.8202C9.29315 27.5335 9.21982 27.2469 9.18648 26.9469C9.15982 26.7535 9.14648 26.5535 9.14648 26.3469C9.14648 26.2669 9.14648 26.1802 9.15982 26.1002C9.16648 25.7869 9.21315 25.4802 9.29315 25.1869C9.33315 24.9869 9.39315 24.7935 9.47315 24.6069C9.49982 24.5135 9.53982 24.4269 9.58648 24.3402C9.68648 24.1135 9.80648 23.8935 9.93982 23.6802C10.0865 23.4669 10.2465 23.2669 10.4265 23.0802C10.6398 22.8402 10.8798 22.6202 11.1532 22.4402C11.6198 22.1002 12.1532 21.8469 12.7332 21.7069C13.1198 21.6002 13.5265 21.5469 13.9465 21.5469C15.2798 21.5469 16.4732 22.0802 17.3398 22.9402C17.3732 22.9735 17.4132 23.0135 17.4465 23.0602H17.4532C17.5465 23.1602 17.6332 23.2602 17.7198 23.3735C17.9665 23.6869 18.1732 24.0269 18.3331 24.4002C18.4131 24.5735 18.4798 24.7535 18.5331 24.9402C18.5398 24.9669 18.5465 24.9869 18.5532 25.0135C18.6465 25.3402 18.7065 25.6802 18.7198 26.0335C18.7332 26.1335 18.7398 26.2402 18.7398 26.3469Z" fill="#FFE082"/>
<path d="M17.3734 26.3466C17.3734 26.6199 17.34 26.8799 17.2667 27.1266C17.2 27.3933 17.1 27.6466 16.9734 27.8866C16.9534 27.9266 16.9067 27.9999 16.9067 27.9999H10.9867C10.98 27.9933 10.9734 27.9799 10.9734 27.9733C10.8934 27.8466 10.8267 27.7199 10.7734 27.5799C10.64 27.2733 10.56 26.9399 10.5334 26.5933C10.52 26.5133 10.52 26.4266 10.52 26.3466C10.52 26.3066 10.52 26.2599 10.5267 26.2199C10.5334 25.9266 10.5734 25.6466 10.6534 25.3866C10.72 25.1466 10.8067 24.9266 10.92 24.7133C10.92 24.7133 10.9267 24.7066 10.9267 24.6999C11.0067 24.5599 11.0934 24.4199 11.1934 24.2866C11.52 23.8466 11.9534 23.4866 12.4534 23.2533C12.46 23.2533 12.46 23.2533 12.46 23.2533C12.62 23.1733 12.7867 23.1066 12.96 23.0599C12.96 23.0599 12.96 23.0599 12.9667 23.0599C13.2734 22.9666 13.6067 22.9199 13.9467 22.9199C14.34 22.9199 14.72 22.9799 15.0667 23.1066C15.1934 23.1399 15.3134 23.1933 15.4334 23.2533C15.4334 23.2533 15.4334 23.2533 15.44 23.2533C16.0134 23.5266 16.5 23.9533 16.8334 24.4866C16.9 24.5866 16.96 24.6933 17.0134 24.8066C17.04 24.8533 17.0667 24.9066 17.0867 24.9533C17.24 25.2999 17.3334 25.6799 17.36 26.0799C17.3667 26.1133 17.3667 26.1466 17.3667 26.1866C17.3734 26.2399 17.3734 26.2933 17.3734 26.3466Z" fill="#FFECB3"/>
<path d="M20.0002 7.3335H12.0002C9.40016 7.3335 7.3335 9.40016 7.3335 12.0002V20.0002C7.3335 22.6002 9.40016 24.6668 12.0002 24.6668H20.0002C22.6002 24.6668 24.6668 22.6002 24.6668 20.0002V12.0002C24.6668 9.40016 22.6002 7.3335 20.0002 7.3335Z" stroke="white" stroke-width="2" stroke-miterlimit="10" stroke-linecap="round" stroke-linejoin="round"/>
<path d="M20.6667 11.3333C21.0349 11.3333 21.3333 11.0349 21.3333 10.6667C21.3333 10.2985 21.0349 10 20.6667 10C20.2985 10 20 10.2985 20 10.6667C20 11.0349 20.2985 11.3333 20.6667 11.3333Z" fill="white"/>
<path d="M16 20C18.2091 20 20 18.2091 20 16C20 13.7909 18.2091 12 16 12C13.7909 12 12 13.7909 12 16C12 18.2091 13.7909 20 16 20Z" stroke="white" stroke-width="2" stroke-miterlimit="10" stroke-linecap="round" stroke-linejoin="round"/>
</svg>
