<svg width="32" height="32" viewBox="0 0 32 32" fill="none" xmlns="http://www.w3.org/2000/svg">
<path fill-rule="evenodd" clip-rule="evenodd" d="M3.2666 28.8668L5.0666 22.3335C3.93327 20.4002 3.33327 18.2002 3.33327 16.0002C3.33327 9.00016 8.99993 3.3335 15.9999 3.3335C19.3999 3.3335 22.5333 4.66683 24.9333 7.06683C27.3333 9.46683 28.6666 12.6002 28.6666 16.0002C28.6666 23.0002 22.9999 28.6668 15.9999 28.6668C13.8666 28.6668 11.7999 28.1335 9.93327 27.1335L3.2666 28.8668Z" fill="white"/>
<path fill-rule="evenodd" clip-rule="evenodd" d="M3.26671 29.2C3.20004 29.2 3.06671 29.1333 3.00004 29.1333C2.93338 29.0667 2.86671 28.9333 2.93338 28.8L4.66671 22.3333C3.60004 20.4 3.00004 18.2 3.00004 15.9333C3.00004 8.8 8.86671 3 16 3C19.4667 3 22.7334 4.33333 25.2 6.8C27.6667 9.26667 29 12.5333 29 16C29 23.1333 23.2 29 16 29C13.8667 29 11.8 28.4667 9.93338 27.4667L3.33338 29.2H3.26671Z" fill="white"/>
<path fill-rule="evenodd" clip-rule="evenodd" d="M16.0002 3.33317C19.4002 3.33317 22.5335 4.6665 24.9335 7.0665C27.3335 9.4665 28.6669 12.5998 28.6669 15.9998C28.6669 22.9998 23.0002 28.6665 16.0002 28.6665C13.8669 28.6665 11.8002 28.1332 9.93353 27.1332L3.26686 28.8665L5.06686 22.3332C3.93353 20.3998 3.33353 18.1998 3.33353 15.9998C3.33353 8.99984 9.0002 3.33317 16.0002 3.33317ZM16.0002 2.6665C8.66686 2.6665 2.66686 8.6665 2.66686 15.9998C2.66686 18.2665 3.2002 20.4665 4.33353 22.3998L2.6002 28.6665C2.53353 28.8665 2.6002 29.1332 2.8002 29.3332C2.93353 29.4665 3.06686 29.5332 3.26686 29.5332C3.33353 29.5332 3.4002 29.5332 3.46686 29.5332L9.93353 27.8665C11.8002 28.8665 13.9335 29.3332 16.0669 29.3332C23.4002 29.3332 29.4002 23.3332 29.4002 15.9998C29.4002 12.4665 28.0002 9.0665 25.5335 6.59984C22.9335 4.0665 19.6002 2.6665 16.0002 2.6665Z" fill="#CFD8DC"/>
<path fill-rule="evenodd" clip-rule="evenodd" d="M23.4668 8.53346C21.4668 6.53346 18.8668 5.4668 16.0001 5.4668C10.2001 5.4668 5.4668 10.2001 5.4668 16.0001C5.4668 18.0001 6.00013 19.9335 7.0668 21.6001L7.33346 22.0001L6.2668 25.8668L10.2668 24.8001L10.6668 25.0001C12.2668 25.9335 14.1335 26.4668 16.0001 26.4668C21.8001 26.4668 26.5335 21.7335 26.5335 15.9335C26.5335 13.2001 25.4668 10.5335 23.4668 8.53346Z" fill="#40C351"/>
<path fill-rule="evenodd" clip-rule="evenodd" d="M12.8665 10.6666C12.5999 10.1333 12.3999 10.1333 12.1332 10.1333C11.9332 10.1333 11.7332 10.1333 11.5332 10.1333C11.3332 10.1333 10.9999 10.2 10.6665 10.5333C10.3999 10.8666 9.5332 11.6 9.5332 13.2C9.5332 14.8 10.6665 16.2666 10.7999 16.4666C10.9332 16.6666 12.9999 20 16.1999 21.2666C18.8665 22.3333 19.3999 22.1333 19.9999 22.0666C20.5999 22 21.8665 21.3333 22.1332 20.5333C22.3999 19.8 22.3999 19.1333 22.3332 19C22.2665 18.8666 22.0665 18.8 21.7332 18.6C21.3999 18.4 19.8665 17.6666 19.5999 17.6C19.3332 17.4666 19.0665 17.4666 18.8665 17.7333C18.6665 18.0666 18.0665 18.7333 17.8665 19C17.6665 19.2 17.4665 19.2666 17.1999 19.0666C16.8665 18.9333 15.8665 18.6 14.6665 17.4666C13.7332 16.6 13.0665 15.6 12.9332 15.2666C12.7332 14.9333 12.9332 14.8 13.0665 14.6C13.1999 14.4666 13.3999 14.2 13.5332 14.0666C13.6665 13.8666 13.7332 13.7333 13.8665 13.5333C13.9999 13.3333 13.9332 13.1333 13.8665 13C13.7332 12.8666 13.1332 11.3333 12.8665 10.6666Z" fill="white"/>
</svg>
